HIERARCHY
ROOT Hips
{
	OFFSET -3.958830 18.904000 13.208200
	CHANNELS 6 Xposition Yposition Zposition Zrotation Yrotation Xrotation 
	JOINT LHipJoint
	{
		OFFSET 0.000000 0.000000 0.000000
		CHANNELS 3 Zrotation Yrotation Xrotation
		JOINT LeftUpLeg
		{
			OFFSET 1.800000 -1.400000 0.085000
			CHANNELS 3 Zrotation Yrotation Xrotation
			JOINT LeftLeg
			{
				OFFSET 2.215000 -6.000000 0.000000
				CHANNELS 3 Zrotation Yrotation Xrotation
				JOINT LeftFoot
				{
					OFFSET 2.500000 -6.900000 0.000000
					CHANNELS 3 Zrotation Yrotation Xrotation
					JOINT LeftToeBase
					{
						OFFSET 0.200000 -0.500000 1.950000
						CHANNELS 3 Zrotation Yrotation Xrotation
						End Site
						{
							OFFSET 0.000000 0.000000 0.000000
						}
					}
				}
			}
		}
	}
	JOINT RHipJoint
	{
		OFFSET 0.000000 0.000000 0.000000
		CHANNELS 3 Zrotation Yrotation Xrotation
		JOINT RightUpLeg
		{
			OFFSET -1.800000 -1.400000 0.085000
			CHANNELS 3 Zrotation Yrotation Xrotation
			JOINT RightLeg
			{
				OFFSET -2.215000 -6.000000 0.000000
				CHANNELS 3 Zrotation Yrotation Xrotation
				JOINT RightFoot
				{
					OFFSET -2.500000 -6.900000 0.000000
					CHANNELS 3 Zrotation Yrotation Xrotation
					JOINT RightToeBase
					{
						OFFSET -0.200000 -0.500000 1.950000
						CHANNELS 3 Zrotation Yrotation Xrotation
						End Site
						{
							OFFSET 0.000000 0.000000 0.000000
						}
					}
				}
			}
		}
	}
	JOINT LowerBack
	{
		OFFSET 0.000000 0.000000 0.000000
		CHANNELS 3 Zrotation Yrotation Xrotation
		JOINT Spine
		{
			OFFSET -0.087000 1.940000 -0.288900
			CHANNELS 3 Zrotation Yrotation Xrotation
			JOINT Spine1
			{
				OFFSET 0.000000 1.950000 0.060000
				CHANNELS 3 Zrotation Yrotation Xrotation
				JOINT Neck
				{
					OFFSET 0.000000 0.000000 0.000000
					CHANNELS 3 Zrotation Yrotation Xrotation
					JOINT Neck1
					{
						OFFSET 0.000000 1.600000 0.340000
						CHANNELS 3 Zrotation Yrotation Xrotation
						JOINT Head
						{
							OFFSET 0.000000 1.667000 -0.240000
							CHANNELS 3 Zrotation Yrotation Xrotation
							End Site
							{
								OFFSET 0.000000 0.000000 0.000000
							}
						}
					}
				}
				JOINT LeftShoulder
				{
					OFFSET 0.000000 0.000000 0.000000
					CHANNELS 3 Zrotation Yrotation Xrotation
					JOINT LeftArm
					{
						OFFSET 2.700000 1.550000 -0.730000
						CHANNELS 3 Zrotation Yrotation Xrotation
						JOINT LeftForeArm
						{
							OFFSET 5.450000 0.000000 0.000000
							CHANNELS 3 Zrotation Yrotation Xrotation
							JOINT LeftHand
							{
								OFFSET 3.450000 0.000000 0.000000
								CHANNELS 3 Zrotation Yrotation Xrotation
								JOINT LeftHandIndex1
								{
									OFFSET 0.750000 0.000000 0.000000
									CHANNELS 3 Zrotation Yrotation Xrotation
									End Site
									{
										OFFSET 0.000000 0.000000 0.000000
									}
								}
							}
						}
					}
				}
				JOINT RightShoulder
				{
					OFFSET 0.000000 0.000000 0.000000
					CHANNELS 3 Zrotation Yrotation Xrotation
					JOINT RightArm
					{
						OFFSET -2.700000 1.550000 -0.730000
						CHANNELS 3 Zrotation Yrotation Xrotation
						JOINT RightForeArm
						{
							OFFSET -5.450000 0.000000 0.000000
							CHANNELS 3 Zrotation Yrotation Xrotation
							JOINT RightHand
							{
								OFFSET -3.450000 0.000000 0.000000
								CHANNELS 3 Zrotation Yrotation Xrotation
								JOINT RightHandIndex1
								{
									OFFSET -0.750000 0.000000 0.000000
									CHANNELS 3 Zrotation Yrotation Xrotation
									End Site
									{
										OFFSET 0.000000 0.000000 0.000000
									}
								}
							}
						}
					}
				}
			}
		}
	}
}
MOTION
Frames: 14
Frame Time: 0.016667
-1.303880 15.295100 -0.281590 -7.914385 -30.928144 1.806411 -15.384446 11.649720 5.030541 10.998089 -8.039844 -39.552644 -13.341486 15.624659 45.394793 0.140670 9.894344 1.161782 0.696440 0.170340 0.546510 18.276256 -9.376397 3.058796 -8.754084 6.567236 -21.405631 22.014514 -17.656867 41.286739 -1.333800 -8.232172 1.812704 0.255670 0.197860 0.072020 -3.460740 -2.269878 -8.694443 8.240962 1.618972 21.310027 -2.362979 4.810646 -1.189986 0.428467 -9.013058 -7.971811 -18.284540 9.630837 28.403293 -0.857570 4.785060 -15.798530 -28.007727 -4.196527 -0.460384 -38.474565 -4.002600 -7.178585 -31.940835 -51.269235 10.924717 -3.581251 3.082095 0.792200 0.034830 -0.082060 0.321840 26.793487 12.134331 6.548326 39.721063 -0.739994 -7.466749 23.309795 23.344552 2.253574 1.800396 -1.385252 -0.388420 0.446730 -0.111600 -0.443860 
-1.309920 15.251280 -0.282940 -8.203730 -31.229726 1.669210 -15.417882 11.562323 5.081238 11.435580 -8.132969 -40.221686 -12.986234 16.106660 47.126415 0.228525 10.201132 1.052994 0.710820 0.188980 0.562710 18.268170 -9.216522 3.163043 -9.159158 7.091234 -22.450555 22.922104 -18.796957 43.078619 -1.463306 -8.656372 1.675238 0.249380 0.163170 0.076110 -3.434077 -2.346789 -8.816323 8.188670 1.491499 22.188948 -2.317830 4.831530 -1.676349 0.556224 -9.036661 -8.161619 -18.469248 9.606352 28.904519 -0.969400 4.806770 -16.352530 -28.296690 -4.528092 -0.382039 -38.343544 -3.556701 -7.570674 -30.618892 -50.741513 10.129046 -3.545689 3.083682 0.802800 0.009430 -0.054800 0.318120 26.901131 12.609360 6.717652 39.837653 -0.753504 -7.571242 22.887476 23.164365 2.164275 1.816814 -1.379297 -0.365680 0.427790 -0.126640 -0.443170 
-1.325280 15.174860 -0.282290 -8.472774 -31.506244 1.070040 -15.505776 11.436553 5.198948 12.650291 -8.231973 -41.199823 -13.053720 17.344154 49.993424 0.393070 10.841144 0.836584 0.732920 0.221790 0.589410 18.225666 -8.921412 3.294420 -9.861123 7.813021 -23.888553 24.074408 -20.678504 46.081888 -1.679697 -9.350138 1.468385 0.245650 0.110640 0.074390 -3.282075 -2.588777 -9.038681 7.232333 1.546945 23.914668 -1.755433 4.982664 -2.455027 0.751705 -8.765043 -8.394147 -18.271355 9.471431 30.138461 -1.241560 5.002260 -17.449590 -29.070479 -5.274649 -0.390489 -37.695316 -3.245039 -7.968724 -28.740948 -49.162984 8.899669 -3.493447 3.063341 0.829720 -0.027970 -0.008730 0.315600 27.482608 13.376095 7.100182 39.607394 -1.376262 -8.026894 22.516174 23.696873 2.170485 1.817909 -1.369400 -0.342350 0.414060 -0.151130 -0.448060 
-1.332730 15.103470 -0.282390 -8.569047 -31.636371 0.203459 -15.594936 11.326081 5.303946 13.517484 -8.502316 -42.015900 -12.975587 18.535778 52.981171 0.568269 11.465871 0.629919 0.739070 0.236810 0.613800 18.177945 -8.605160 3.456442 -10.911182 8.510418 -25.659600 25.228357 -22.791944 49.237826 -1.906666 -10.093660 1.254733 0.228020 0.055520 0.074230 -3.110438 -2.875091 -9.283359 6.095496 1.604766 25.961476 -1.260685 5.092006 -3.424150 1.066046 -8.280873 -8.773149 -17.924786 9.372194 32.367944 -1.685290 5.307180 -18.289080 -30.217884 -6.591079 -0.324357 -36.803320 -3.034959 -8.290243 -25.019843 -45.830496 6.668254 -3.446423 3.015269 0.856780 -0.063240 0.038950 0.300530 28.255961 14.558028 7.617553 39.364028 -1.943571 -8.389721 21.964386 23.487953 2.029598 1.825506 -1.338070 -0.317700 0.397680 -0.164320 -0.456590 
-1.331050 15.043630 -0.279340 -8.382873 -31.337227 -0.928891 -15.666659 11.247036 5.329285 13.966992 -8.842125 -42.184415 -13.060345 19.422381 54.960167 0.680976 11.875271 0.487281 0.774780 0.272540 0.658480 18.137456 -8.286166 3.671325 -12.708318 9.049266 -27.699636 26.974811 -25.408945 52.223612 -2.172258 -10.896316 1.025042 0.224720 -0.012210 0.072170 -2.964280 -3.187331 -9.497475 4.836506 1.648373 28.148147 -0.838445 5.051471 -4.373050 1.251873 -7.944854 -9.246949 -18.135159 9.396293 34.896579 -1.198180 5.113030 -20.125770 -30.962783 -7.924425 -0.269164 -36.370613 -3.383307 -8.239280 -21.007093 -41.414967 4.427074 -3.380731 2.946525 0.915300 -0.124260 0.102000 0.289370 28.907578 15.710131 8.156966 39.471386 -2.669937 -8.955211 20.691797 23.570531 1.835398 1.825569 -1.291259 -0.295330 0.394960 -0.184230 -0.470440 
-1.322880 15.004910 -0.262520 -8.367331 -31.161046 -2.210311 -15.702126 11.233129 5.279902 14.177443 -9.039967 -41.691416 -12.749279 19.996714 56.697098 0.757597 12.163313 0.375619 0.826910 0.325930 0.720330 18.115745 -8.041149 3.885113 -14.510284 9.483750 -29.452924 28.348630 -27.771154 54.899730 -2.417526 -11.586970 0.823849 0.233910 -0.094140 0.073600 -2.889549 -3.443595 -9.655195 4.200066 1.468686 30.534775 -0.846067 4.899865 -5.525372 1.493624 -7.634540 -9.598920 -18.494545 9.705662 37.700161 -0.981420 5.126400 -22.274070 -32.263002 -8.984431 -0.360279 -35.249551 -3.620927 -7.746495 -17.840794 -36.036295 2.747940 -3.312541 2.887923 0.979530 -0.192560 0.175830 0.277540 29.911286 16.481308 8.464396 39.291173 -3.194060 -9.342354 19.202038 23.403747 1.619313 1.828420 -1.250211 -0.269800 0.387930 -0.212620 -0.488730 
-1.311380 14.984800 -0.228620 -8.375973 -30.990326 -3.372224 -15.703753 11.225092 5.159331 13.821667 -9.252278 -40.875081 -11.796789 20.175408 58.464200 0.814695 12.373039 0.296313 0.855570 0.356780 0.739190 18.120393 -7.836142 4.142525 -16.947376 9.713580 -31.305597 30.166662 -30.445146 57.169564 -2.640066 -12.275227 0.626140 0.241270 -0.137810 0.075310 -2.912084 -3.609501 -9.766180 4.197329 1.007650 32.299736 -1.292687 4.523391 -6.655187 1.605616 -7.715302 -10.012226 -19.704883 10.390543 40.017127 -0.067390 4.680490 -23.200630 -33.666083 -9.763080 -0.387581 -34.143273 -3.412847 -7.053429 -14.787531 -30.527128 1.393468 -3.269438 2.844095 1.018450 -0.241170 0.218760 0.271250 31.225869 17.031735 8.705757 38.864807 -3.890592 -9.629261 17.706560 23.128393 1.402888 1.825919 -1.222394 -0.251540 0.387280 -0.217620 -0.489970 
-1.295240 14.974400 -0.192760 -8.313111 -30.739267 -4.264872 -15.710562 11.208554 5.046910 13.143093 -9.565298 -40.163222 -11.061416 20.193510 59.643691 0.847819 12.496225 0.249692 0.858330 0.355410 0.759180 18.122072 -7.649473 4.387251 -19.849440 9.535320 -32.952630 32.194641 -33.044909 58.556889 -2.800980 -12.812174 0.480613 0.234470 -0.168150 0.075220 -2.918630 -3.758482 -9.866521 4.168960 0.685685 33.433903 -1.780377 4.075321 -7.458133 1.905117 -7.435621 -10.323251 -19.932796 10.634772 42.142207 -0.242000 4.513370 -23.448490 -34.955242 -10.457148 -0.333512 -33.422523 -3.205416 -6.214336 -11.903564 -25.003236 0.358529 -3.267024 2.779018 1.040800 -0.262100 0.240640 0.250110 32.013786 17.287784 8.802844 38.747239 -4.629864 -10.008609 17.114357 23.237320 1.318791 1.822047 -1.194720 -0.244710 0.385050 -0.210890 -0.501960 
-1.281800 14.977240 -0.156920 -8.515935 -30.550948 -4.718819 -15.696255 11.211800 4.898549 12.413186 -9.633304 -39.352283 -10.021311 19.838592 60.332603 0.859860 12.455528 0.256624 0.880700 0.387170 0.770540 18.143107 -7.518667 4.623356 -22.405236 9.360634 -34.463663 33.697506 -35.191607 59.797822 -2.938156 -13.232544 0.371451 0.241440 -0.192870 0.080300 -2.986981 -3.828081 -9.918181 4.497799 0.057218 34.141700 -2.540283 3.366516 -8.216487 2.119132 -7.330402 -10.567394 -20.159699 11.335112 43.423591 0.044120 4.661380 -23.668390 -35.917601 -10.757424 -0.128121 -32.792621 -2.240896 -5.525069 -10.062515 -20.316368 -0.248350 -3.252838 2.751116 1.049450 -0.282690 0.267060 0.253120 32.581661 17.213829 8.598681 38.791862 -4.804351 -10.132596 16.973073 22.857391 1.233748 1.834539 -1.185805 -0.223590 0.376920 -0.223660 -0.496320 
-1.276770 14.991000 -0.120170 -9.035110 -30.238661 -4.899224 -15.664488 11.263918 4.748522 11.938344 -9.457242 -38.346750 -9.173193 19.310999 60.246769 0.836005 12.306417 0.304928 0.868940 0.381680 0.761060 18.169864 -7.490587 4.778012 -24.243655 9.095843 -35.355540 34.413873 -36.228751 60.226198 -2.972532 -13.410231 0.336662 0.235350 -0.188010 0.078520 -3.069831 -3.829250 -9.924464 5.243487 -0.690719 34.286520 -3.460673 2.642679 -8.762059 2.382921 -7.011163 -10.453217 -19.466319 11.435659 44.218206 -0.510900 4.907330 -22.834240 -36.969092 -10.602569 -0.014081 -31.809853 -1.001299 -4.938098 -8.992798 -16.578800 -0.570624 -3.273738 2.718839 1.032040 -0.266980 0.258550 0.251270 32.991664 16.570889 8.162814 38.876160 -4.977377 -10.307953 17.357931 23.043605 1.271366 1.835224 -1.188204 -0.219900 0.371760 -0.221480 -0.494070 
-1.276620 15.030970 -0.088350 -9.200236 -30.288692 -5.345351 -15.620862 11.412916 4.626098 11.357978 -9.180040 -36.992452 -8.797252 18.813459 59.492912 0.802939 12.100624 0.378952 0.845920 0.358190 0.740910 18.180896 -7.639370 4.752290 -25.165419 8.807701 -34.871338 33.906041 -34.816937 58.823264 -2.844691 -13.072757 0.409090 0.221250 -0.162020 0.083250 -3.109315 -3.765732 -9.852743 5.321524 -0.896777 34.280900 -4.003222 2.277587 -9.258911 2.449516 -6.694294 -10.194586 -18.756403 11.393144 44.933306 -0.306190 4.897220 -21.911100 -37.814902 -10.095480 -0.027689 -31.276558 -0.097291 -4.234079 -7.547916 -12.788848 -0.880276 -3.318870 2.669875 1.016760 -0.248050 0.245220 0.252570 33.615371 15.677698 7.722018 38.604939 -5.437095 -10.589427 18.086716 23.723695 1.424288 1.828794 -1.198637 -0.222670 0.374760 -0.210030 -0.484560 
-1.284480 15.079240 -0.073380 -9.241106 -30.281690 -5.699289 -15.572697 11.571156 4.544249 10.989430 -8.912561 -35.812761 -8.571662 18.280126 58.464630 0.732690 11.889645 0.448088 0.813140 0.304670 0.720620 18.189135 -7.872220 4.630616 -25.464449 8.386576 -33.981651 33.232106 -31.926228 55.427860 -2.584245 -12.338561 0.563581 0.201840 -0.122430 0.106110 -3.139287 -3.628226 -9.739422 5.041455 -0.965891 34.108401 -4.377252 2.010223 -9.537911 2.365939 -6.307852 -9.610531 -17.467517 10.833323 44.628614 -0.281810 4.780820 -20.926040 -38.175281 -9.263447 -0.162991 -30.599027 0.536291 -3.490717 -6.967687 -9.253959 -1.112493 -3.396488 2.631067 1.004110 -0.212100 0.213320 0.241750 34.003337 14.434684 7.062117 38.393006 -5.631045 -10.842944 19.462425 24.525551 1.684038 1.812497 -1.224332 -0.236110 0.364700 -0.179530 -0.486960 
-1.298730 15.129680 -0.062250 -9.221601 -30.334094 -5.564215 -15.523783 11.763240 4.531044 10.566072 -8.665625 -35.163090 -8.239086 17.567437 57.291676 0.698022 11.547390 0.547522 0.829670 0.338290 0.711130 18.187214 -8.224964 4.349766 -24.576633 7.827134 -32.719460 30.465363 -27.198993 51.040415 -2.204633 -11.149108 0.842407 0.207590 -0.127440 0.134890 -3.135583 -3.441831 -9.561934 4.502723 -0.891675 32.991738 -4.371832 1.784013 -9.113067 2.230804 -6.129486 -8.832457 -16.474440 10.344231 43.612521 -0.493100 4.898220 -20.489060 -37.554985 -7.855645 -0.420427 -31.181547 0.608946 -2.779632 -5.536894 -5.373074 -1.273913 -3.458443 2.647218 0.956620 -0.196330 0.213800 0.256120 33.498001 12.882785 6.206339 38.742213 -5.320616 -11.062782 21.300841 25.546798 2.033717 1.834916 -1.290564 -0.192630 0.317180 -0.199520 -0.463850 
-1.317790 15.188090 -0.048770 -9.201672 -30.555765 -5.348822 -15.450830 12.083362 4.502589 9.861281 -8.321364 -34.102001 -7.569163 16.403155 55.445094 0.585676 11.069538 0.717474 0.793810 0.290050 0.675440 18.174116 -8.731252 3.943359 -22.936689 6.969904 -30.820372 26.188685 -21.474179 45.234517 -1.677574 -9.472812 1.300300 0.189780 -0.069150 0.147440 -3.109350 -3.265444 -9.294492 4.002961 -0.764757 31.408278 -4.223610 1.650081 -8.405916 2.020805 -6.073481 -8.336808 -15.856147 10.197788 42.525306 -0.556290 5.079510 -19.043010 -36.359354 -6.629418 -0.481631 -31.867278 1.067839 -2.208627 -5.318421 -1.871955 -1.400478 -3.549119 2.616444 0.928490 -0.150710 0.175090 0.270110 32.634034 11.584387 5.588625 39.331026 -5.317390 -11.497928 23.423913 27.096453 2.538835 1.832817 -1.324696 -0.210200 0.320330 -0.183110 -0.452930 
